<?xml version="1.0" encoding="UTF-8" standalone="no"?>
<!-- Created with Inkscape (http://www.inkscape.org/) -->

<svg
   xmlns:dc="http://purl.org/dc/elements/1.1/"
   xmlns:cc="http://creativecommons.org/ns#"
   xmlns:rdf="http://www.w3.org/1999/02/22-rdf-syntax-ns#"
   xmlns:svg="http://www.w3.org/2000/svg"
   xmlns="http://www.w3.org/2000/svg"
   xmlns:sodipodi="http://sodipodi.sourceforge.net/DTD/sodipodi-0.dtd"
   xmlns:inkscape="http://www.inkscape.org/namespaces/inkscape"
   width="210mm"
   height="297mm"
   viewBox="0 0 210 297"
   version="1.1"
   id="svg8"
   inkscape:version="0.92.1 r15371"
   sodipodi:docname="groupchat.svg">
  <defs
     id="defs2" />
  <sodipodi:namedview
     id="base"
     pagecolor="#ffffff"
     bordercolor="#666666"
     borderopacity="1.0"
     inkscape:pageopacity="0.0"
     inkscape:pageshadow="2"
     inkscape:zoom="0.5815516"
     inkscape:cx="217.97002"
     inkscape:cy="778.83193"
     inkscape:document-units="mm"
     inkscape:current-layer="g4496"
     showgrid="false"
     inkscape:window-width="1920"
     inkscape:window-height="1027"
     inkscape:window-x="-8"
     inkscape:window-y="701"
     inkscape:window-maximized="1" />
  <metadata
     id="metadata5">
    <rdf:RDF>
      <cc:Work
         rdf:about="">
        <dc:format>image/svg+xml</dc:format>
        <dc:type
           rdf:resource="http://purl.org/dc/dcmitype/StillImage" />
        <dc:title></dc:title>
      </cc:Work>
    </rdf:RDF>
  </metadata>
  <g
     inkscape:label="Laag 1"
     inkscape:groupmode="layer"
     id="layer1">
    <g
       id="g4496"
       transform="translate(-170.84524,-3.02381)">
      <path
         style="fill:#e6e6e6;stroke-width:0.40048379"
         d="m 284.84282,212.45535 c 14.08794,-0.68503 27.68308,-3.14873 34.50699,-6.25332 3.71067,-1.6882 3.99702,-2.28298 3.73716,-7.76311 -0.36733,-7.74681 -3.06493,-17.03537 -6.37009,-21.93394 -3.91716,-5.80561 -8.91606,-9.18514 -16.16074,-10.92552 -3.62399,-0.8706 -4.81177,-1.40029 -7.45862,-3.32629 -1.0472,-0.762 -2.08755,-1.38544 -2.31191,-1.38544 -0.22436,0 -1.89246,1.11904 -3.70691,2.48674 -6.98403,5.26451 -12.15932,6.40936 -18.16325,4.01798 -0.74491,-0.29671 -2.82756,-1.67325 -4.6281,-3.059 -4.29543,-3.30586 -4.09554,-3.21882 -5.39125,-2.34755 -2.22711,1.49757 -5.36021,2.77495 -8.74907,3.56704 -10.31571,2.41109 -16.44922,8.18911 -20.00214,18.84284 -1.81344,5.43767 -2.98801,11.3529 -3.0679,15.45006 -0.06,3.07741 0.0438,3.69144 0.75073,4.4412 1.17861,1.24999 3.93046,2.48543 8.62019,3.86999 8.25483,2.43712 16.69341,3.65888 29.93679,4.33434 8.45035,0.431 9.2796,0.43028 18.45812,-0.0161 z m 54.34894,-11.5773 c 17.06652,-0.90541 29.74995,-3.16969 36.91625,-6.59039 3.1685,-1.51243 3.49098,-2.08977 3.45616,-6.1878 -0.0361,-4.24109 -0.66667,-7.96147 -2.29626,-13.54656 -3.46017,-11.85907 -9.75855,-18.25977 -20.43838,-20.77045 -3.66546,-0.86171 -5.25974,-1.60709 -8.06207,-3.71503 l -1.70426,-1.28197 -3.50473,2.62272 c -5.92882,4.43674 -10.3466,6.04183 -14.94999,5.13627 -3.14973,-0.61961 -4.7991,-1.53987 -8.74801,-4.53778 -2.981,-2.2631 -3.43448,-2.48767 -4.16458,-2.06241 -3.10436,1.80822 -6.31422,3.14185 -9.31858,3.84587 -3.44115,0.80638 -8.27747,2.83748 -10.2343,4.29807 -0.87589,0.65376 -0.93251,0.83384 -0.44005,1.39948 0.88213,1.01323 2.72914,1.78836 6.63719,2.78536 15.08809,3.84918 22.32572,14.55089 24.76673,36.62062 l 0.24867,2.24835 4.79011,-0.0724 c 2.63455,-0.0397 5.80531,-0.12619 7.0461,-0.19202 z m -115.56132,-5.69866 c 0.86047,-5.71047 3.17189,-13.61905 5.15481,-17.6373 1.79572,-3.63892 4.89782,-7.50187 7.99106,-9.95109 2.81714,-2.2306 7.98403,-4.59759 11.77601,-5.39467 3.00169,-0.63097 7.38411,-2.52874 9.42368,-4.08086 l 1.02544,-0.78038 -1.23053,-0.96955 c -1.97072,-1.55275 -6.72405,-3.60029 -10.00018,-4.27628 -3.61212,-0.74531 -4.959,-1.33994 -7.50609,-3.31376 -1.05567,-0.81806 -2.02001,-1.48739 -2.14297,-1.48739 -0.12296,0 -1.74473,1.14543 -3.60391,2.54542 -4.50984,3.39594 -7.87788,4.91362 -11.62399,5.10127 -1.58568,0.0795 -3.65413,-0.0536 -4.59658,-0.29542 -1.947,-0.49979 -7.09798,-3.64074 -8.9018,-5.40669 -1.41338,-1.38371 -2.0516,-1.45106 -3.71742,-0.39227 -2.58413,1.64246 -5.17071,2.65736 -8.27124,3.2454 -5.11331,0.96977 -8.81265,2.92241 -12.65458,6.60648 -2.53133,2.42733 -3.68678,3.91788 -5.02058,6.47661 -2.90376,5.57049 -5.43242,15.77598 -5.43242,21.92479 0,2.95481 0.0303,3.04459 1.42034,4.20804 4.5857,3.83819 19.95317,6.99438 38.37342,7.88119 4.39575,0.21163 8.19082,0.38717 8.43348,0.39009 0.25034,0.003 0.72796,-1.89772 1.10405,-4.39363 z m 54.44441,-32.10013 c 3.35577,-0.90181 5.09288,-1.93904 8.25053,-4.92641 2.6483,-2.50551 3.45723,-3.66195 5.31943,-7.23029 1.20858,-2.3159 2.80019,-4.74365 3.53939,-5.39877 1.85609,-1.64499 2.64366,-3.63042 2.89,-7.28558 0.18201,-2.70051 0.0863,-3.35889 -0.71178,-4.89656 -0.80289,-1.54691 -0.88623,-2.13322 -0.64483,-4.536 0.34339,-3.41775 -0.49479,-7.51119 -2.10195,-10.26532 -1.61999,-2.77614 -4.56282,-4.99653 -9.95546,-7.5115 l -4.69463,-2.18942 -4.53443,0.0222 c -12.74168,0.0624 -20.12681,5.67297 -21.54933,16.37126 -0.17354,1.30519 -0.17022,3.22924 0.007,4.27572 0.27689,1.63152 0.17376,2.19139 -0.72372,3.92871 -0.93123,1.80264 -1.02249,2.35444 -0.82773,5.00478 0.24525,3.33737 1.26101,5.62704 3.24681,7.31871 0.67362,0.57384 1.81761,2.31432 2.54223,3.86769 4.39107,9.41344 12.91832,15.33991 19.94808,13.45075 z m 55.46226,-11.6311 c 3.74085,-0.51648 8.12548,-3.26015 11.1503,-6.97733 0.87942,-1.0807 2.45658,-3.60042 3.50479,-5.59936 1.04822,-1.99894 2.58508,-4.28761 3.41525,-5.08593 2.7193,-2.61498 3.7029,-8.7437 1.91837,-11.95336 -0.71894,-1.29311 -0.80481,-1.9367 -0.58497,-4.38485 0.31736,-3.53448 -0.52101,-7.62617 -2.12621,-10.37695 -1.65359,-2.83368 -4.47652,-4.96864 -9.86536,-7.478116 l -4.78887,-2.230081 -4.3294,0.02628 c -14.12099,0.08578 -22.33291,7.545237 -21.66111,19.676277 0.15315,2.76578 0.0517,3.48064 -0.67826,4.78219 -1.83036,3.26327 -0.76565,9.54217 2.04839,12.07999 0.79898,0.72055 2.15589,2.70782 3.01533,4.41614 4.76106,9.46357 11.5264,14.13439 18.98175,13.1051 z m -107.26235,-2.01398 c 2.5287,-0.77086 5.2996,-2.38535 7.19555,-4.19256 2.3138,-2.20551 5.31444,-6.57935 6.44065,-9.38814 0.62799,-1.56617 1.35795,-2.63162 2.17456,-3.17397 2.01835,-1.34046 3.29336,-4.47269 3.31829,-8.15182 0.0169,-2.49461 -0.14958,-3.39248 -0.82785,-4.4647 -0.74735,-1.1814 -0.82448,-1.7799 -0.64402,-4.99774 0.16905,-3.01419 0.0519,-4.12582 -0.66771,-6.33549 -1.43617,-4.41003 -4.42107,-7.56662 -9.15358,-9.680082 -1.42522,-0.636481 -3.40409,-1.605287 -4.39749,-2.152908 -1.51872,-0.837199 -3.78964,-1.144354 -5.74253,-1.161935 -4.41604,-0.03976 -9.00429,0.544862 -13.03071,2.39325 -6.69654,3.074145 -10.54997,10.082805 -9.84651,17.908905 0.19457,2.16467 0.0945,2.87953 -0.56323,4.02415 -0.59157,1.02947 -0.79984,2.14762 -0.79984,4.29434 0,3.65749 0.90075,6.17767 2.84835,7.96936 0.86937,0.79979 2.4031,3.11427 3.64109,5.4946 3.88308,7.46619 9.36357,11.6957 15.55412,12.00373 1.65008,0.0821 3.4721,-0.0753 4.50086,-0.38899 z M 322.59109,79.185467 V 69.49944 l 2.0725,-2.709949 c 5.04093,-6.591455 7.40512,-14.562185 6.4979,-21.907327 -1.45038,-11.742547 -8.99814,-21.504591 -21.08091,-27.265401 -15.4733,-7.377345 -34.7048,-5.696431 -48.41002,4.23124 -5.54868,4.019307 -9.52939,9.084174 -11.97552,15.237052 -6.11963,15.393128 1.33549,32.191984 18.03717,40.643705 5.31566,2.689941 9.5777,3.94465 16.58557,4.882651 4.05386,0.542609 6.82931,0.495867 11.51172,-0.193878 4.99057,-0.735134 6.16027,-1.014109 9.73909,-2.322793 1.5792,-0.577468 3.14814,-1.128461 3.48655,-1.224425 0.33839,-0.09596 1.35359,0.453033 2.25598,1.219995 3.50163,2.976076 11.03069,10.146064 11.03069,10.146064 0,0 0.24928,-5.723595 0.24928,-11.050907 z M 306.01412,65.896396 c -3.05646,-1.382621 -3.12161,-5.595378 -0.10951,-7.080225 2.69689,-1.329452 5.89874,0.505071 5.8963,3.378322 -0.002,1.686286 -0.7998,3.012709 -2.21269,3.676233 -1.33063,0.624885 -2.2351,0.631381 -3.5741,0.02566 z m -13.99004,-0.310653 c -1.03225,-0.64475 -1.67227,-1.896694 -1.67086,-3.268325 0.004,-3.572375 4.53553,-5.267722 7.06045,-2.641291 0.88442,0.919971 1.0208,1.270782 1.01946,2.62222 -0.002,1.744159 -0.69076,2.820181 -2.32998,3.638576 -1.08581,0.542105 -2.89883,0.386016 -4.07907,-0.35118 z m -13.36741,0 c -2.40319,-1.501067 -2.12403,-5.469552 0.47489,-6.750712 3.19939,-1.577168 6.89126,1.196144 5.9637,4.479893 -0.75347,2.667446 -3.9811,3.805795 -6.43859,2.270819 z m -46.04204,14.573578 c 7.43606,-6.246257 10.08206,-8.174824 10.94528,-7.97758 0.49048,0.112073 2.48494,0.747295 4.43214,1.4116 3.59872,1.227744 7.14554,2.028546 7.49772,1.692834 0.10685,-0.101838 -0.95215,-1.441759 -2.35329,-2.97758 -1.40116,-1.535827 -2.9509,-3.3361 -3.44389,-4.000616 -1.50329,-2.026302 -4.04571,-7.209265 -5.25743,-10.717787 -1.05778,-3.062728 -1.14788,-3.79941 -1.14772,-9.38439 1.9e-4,-6.379887 0.24614,-7.750035 2.33354,-12.999964 4.74656,-11.937882 16.53511,-21.192023 31.7477,-24.922302 1.82778,-0.4481899 2.23796,-0.9825161 1.02546,-1.3358106 -4.7284,-1.3777329 -11.98823,-2.5806602 -15.57466,-2.5806602 -6.16774,0 -14.85924,1.9603229 -20.41869,4.6053268 -11.14067,5.300361 -18.11997,13.473499 -20.71371,24.256877 -0.62546,2.600336 -0.62846,9.951883 -0.005,12.236574 0.712,2.609112 2.06801,6.228166 2.98766,7.97376 1.06215,2.016115 3.71422,5.746832 4.56212,6.417644 0.57213,0.452641 0.65841,1.795531 0.65841,10.248422 0,5.43791 0.16131,9.727529 0.36582,9.727529 0.2012,0 1.26254,-0.753246 2.35854,-1.673877 z"
         id="path4498"
         inkscape:connector-curvature="0"
         sodipodi:nodetypes="cscsccscccscccccscccccsccccccscccscccccscccccccssccccssccssccscccccccccccccsscccccccccccscccccccccccccccccasccsccccscccsscsssccccsccccccccscscssssccccccccsscssscccssc" />
    </g>
  </g>
</svg>
