<?xml version="1.0" encoding="UTF-8" standalone="no"?>
<!-- Created with Inkscape (http://www.inkscape.org/) -->

<svg
   xmlns:dc="http://purl.org/dc/elements/1.1/"
   xmlns:cc="http://creativecommons.org/ns#"
   xmlns:rdf="http://www.w3.org/1999/02/22-rdf-syntax-ns#"
   xmlns:svg="http://www.w3.org/2000/svg"
   xmlns="http://www.w3.org/2000/svg"
   xmlns:sodipodi="http://sodipodi.sourceforge.net/DTD/sodipodi-0.dtd"
   xmlns:inkscape="http://www.inkscape.org/namespaces/inkscape"
   width="200mm"
   height="200mm"
   viewBox="0 0 200 200"
   version="1.1"
   id="svg8"
   inkscape:version="0.92.1 r15371"
   sodipodi:docname="hatnu-bg-p2.svg"
   inkscape:export-filename="C:\Users\Jorn\Desktop\hat.nu-2.png"
   inkscape:export-xdpi="123"
   inkscape:export-ydpi="123">
  <defs
     id="defs2" />
  <sodipodi:namedview
     id="base"
     pagecolor="#ffffff"
     bordercolor="#666666"
     borderopacity="1.0"
     inkscape:pageopacity="0.0"
     inkscape:pageshadow="2"
     inkscape:zoom="0.6613289"
     inkscape:cx="293.82669"
     inkscape:cy="295.96847"
     inkscape:document-units="mm"
     inkscape:current-layer="g4734"
     showgrid="false"
     inkscape:window-width="1324"
     inkscape:window-height="829"
     inkscape:window-x="1945"
     inkscape:window-y="71"
     inkscape:window-maximized="0"
     showguides="true"
     inkscape:guide-bbox="true" />
  <metadata
     id="metadata5">
    <rdf:RDF>
      <cc:Work
         rdf:about="">
        <dc:format>image/svg+xml</dc:format>
        <dc:type
           rdf:resource="http://purl.org/dc/dcmitype/StillImage" />
        <dc:title></dc:title>
      </cc:Work>
    </rdf:RDF>
  </metadata>
  <g
     inkscape:groupmode="layer"
     id="layer4"
     inkscape:label="Laag 2"
     transform="translate(0,-97)"
     style="display:inline" />
  <g
     inkscape:label="Laag 1"
     inkscape:groupmode="layer"
     id="layer1"
     transform="translate(0,-97)"
     style="display:inline" />
  <g
     inkscape:groupmode="layer"
     id="layer3"
     inkscape:label="Layer 1"
     transform="translate(0,-97)"
     style="display:inline">
    <g
       id="g4734"
       transform="translate(-9.9250099,60.576783)">
      <path
         style="fill:#000000;stroke-width:0.21275814"
         d="M 9.9250231,106.4255 V 36.428065 H 92.900693 l 4.578203,0.882593 c -0.05349,0.05349 0.05141,1.624106 0.233263,3.490199 0.385104,3.95258 0.313405,6.19935 -0.223998,7.01953 -0.541434,0.82634 -4.246122,2.52237 -7.155642,3.2759 -1.337402,0.34637 -3.819887,0.9192 -5.516632,1.27295 -3.804171,0.79314 -4.529147,0.99714 -5.763582,1.62177 -0.537089,0.27178 -2.595524,0.98584 -4.5743,1.5868 -3.38144,1.02695 -4.548076,1.25064 -9.874139,1.8932 -3.384665,0.40833 -4.042405,0.76987 -4.042405,2.22196 0,1.80513 -3.166571,6.98383 -5.590074,9.14217 -4.248842,3.78396 -4.236615,3.76236 -3.412383,6.02813 0.2915,0.80132 0.759621,2.09019 1.040266,2.86416 0.280643,0.77397 0.703921,2.74888 0.940619,4.38869 0.492364,3.41107 2.124071,9.50795 2.907746,10.86482 0.29117,0.50413 1.455572,1.97031 2.58756,3.25816 1.131989,1.28784 2.503447,2.99864 3.047686,3.801773 2.06921,3.05353 3.029161,7.14154 2.213775,9.4275 -0.635005,1.78025 -1.41203,2.5648 -4.586228,4.63067 -0.526577,0.34271 -1.368537,0.95595 -1.871022,1.36277 -1.216734,0.98506 -2.595269,1.3703 -5.788271,1.61759 -3.117437,0.24143 -6.157642,0.73527 -7.195096,1.16875 l -0.735402,0.30727 0.188791,4.09424 c 0.103835,2.25183 0.175708,4.83843 0.159717,5.74799 -0.05056,2.87588 -1.160076,4.97921 -3.281645,6.22108 -1.056625,0.61849 -1.056159,1.32301 0.0023,3.5118 0.532886,1.10193 0.861691,2.08359 0.861691,2.57259 0,0.8467 -0.09771,0.98683 -3.127146,4.48459 -1.122658,1.29621 -1.941359,2.56331 -3.067055,4.74682 -2.11328,4.09915 -2.110692,4.19661 0.251374,9.46774 1.227486,2.73923 1.232872,3.5959 0.03777,6.00773 -0.995931,2.00987 -2.372139,3.88856 -3.649345,4.98181 -2.345438,2.0076 -8.377201,5.20731 -10.763996,5.71003 -1.073425,0.2261 -2.930043,0.31473 -6.648692,0.31738 l -5.1593911,0.004 z"
         id="path4511"
         inkscape:connector-curvature="0"
         sodipodi:nodetypes="ccccccccccssscccsscscscccssccsccscccccc" />
    </g>
  </g>
</svg>
