<?xml version="1.0" encoding="UTF-8" standalone="no"?>
<!-- Created with Inkscape (http://www.inkscape.org/) -->

<svg
   xmlns:dc="http://purl.org/dc/elements/1.1/"
   xmlns:cc="http://creativecommons.org/ns#"
   xmlns:rdf="http://www.w3.org/1999/02/22-rdf-syntax-ns#"
   xmlns:svg="http://www.w3.org/2000/svg"
   xmlns="http://www.w3.org/2000/svg"
   xmlns:sodipodi="http://sodipodi.sourceforge.net/DTD/sodipodi-0.dtd"
   xmlns:inkscape="http://www.inkscape.org/namespaces/inkscape"
   width="180mm"
   height="180mm"
   viewBox="0 0 180 180"
   version="1.1"
   id="svg8"
   inkscape:version="0.92.1 r15371"
   sodipodi:docname="CryptoExtensionsLogo2.svg"
   inkscape:export-filename="C:\Users\Jorn\Desktop\bitmap5.png"
   inkscape:export-xdpi="96.409828"
   inkscape:export-ydpi="96.409828">
  <defs
     id="defs2" />
  <sodipodi:namedview
     id="base"
     pagecolor="#ffffff"
     bordercolor="#666666"
     borderopacity="1.0"
     inkscape:pageopacity="0.0"
     inkscape:pageshadow="2"
     inkscape:zoom="0.5606489"
     inkscape:cx="153.69478"
     inkscape:cy="401.58915"
     inkscape:document-units="mm"
     inkscape:current-layer="layer6"
     showgrid="false"
     inkscape:window-width="1326"
     inkscape:window-height="821"
     inkscape:window-x="756"
     inkscape:window-y="192"
     inkscape:window-maximized="0"
     showguides="true"
     inkscape:guide-bbox="true"
     inkscape:measure-start="80.772,346.166"
     inkscape:measure-end="1.04899,381.831" />
  <metadata
     id="metadata5">
    <rdf:RDF>
      <cc:Work
         rdf:about="">
        <dc:format>image/svg+xml</dc:format>
        <dc:type
           rdf:resource="http://purl.org/dc/dcmitype/StillImage" />
        <dc:title />
      </cc:Work>
    </rdf:RDF>
  </metadata>
  <g
     inkscape:groupmode="layer"
     id="layer6"
     inkscape:label="Layer 3"
     style="display:inline"
     transform="translate(0,-117)">
    <circle
       style="opacity:1;fill:#03d4ff;fill-opacity:1;fill-rule:nonzero;stroke:none;stroke-width:5;stroke-linecap:round;stroke-linejoin:round;stroke-miterlimit:4;stroke-dasharray:none;stroke-dashoffset:0;stroke-opacity:1"
       id="path4751"
       cx="90"
       cy="207"
       r="85.028023" />
  </g>
  <g
     inkscape:label="Laag 1"
     inkscape:groupmode="layer"
     id="layer1"
     style="display:inline"
     transform="translate(0,-117)" />
  <g
     inkscape:groupmode="layer"
     id="layer5"
     inkscape:label="Laag 2"
     style="display:inline"
     transform="translate(0,-117)">
    <g
       id="g4520"
       transform="translate(0,1.0583333)">
      <g
         style="display:inline;fill:#000000;fill-opacity:1"
         transform="matrix(1.268949,0,0,1.268949,-45.460163,68.958075)"
         id="g4506">
        <path
           sodipodi:nodetypes="csssccccccccccccccccsccsccccsczcc"
           inkscape:connector-curvature="0"
           id="path4510"
           d="m 60.59501,139.6013 c 4.515564,5.4193 17.745895,15.85055 29.281265,18.43166 4.53203,1.01407 6.952141,1.48386 12.735025,1.48386 5.78289,0 8.72988,-0.46979 13.2619,-1.48386 23.39513,-5.2348 40.54326,-25.03451 42.49307,-49.0637 0.10537,-1.4222 -3.19211,-1.28768 -5.35309,-1.26999 l -5.45978,0.0447 -0.18316,7.45817 c 0,0 0.95171,5.78168 -4.7233,9.02361 -5.16059,2.67798 -8.54698,3.08202 -12.56889,3.09631 l -3.07979,0.0537 v -4.38364 l -15.03132,0.0567 -2.68147,-14.83917 h 17.71279 l 0.0899,-9.800672 -17.72237,-0.04378 2.52286,-14.175989 15.10961,-0.14161 v -4.145832 c 0,0 2.29822,-0.02804 3.27258,-0.09085 3.88135,-0.250207 8.93062,0.01597 13.03536,2.070873 5.5646,2.179605 4.33998,7.837973 4.33998,7.837973 0,0 -0.0301,6.413888 -0.0301,6.515421 0,0.130003 3.4448,0.185158 8.00601,0.18647 3.56235,10e-4 4.63525,0.09153 4.98101,0.104499 0,0 3.00639,0.12014 2.87584,3.850467 0.19489,2.29575 0.13925,7.87572 -0.0958,9.992 -1.35928,12.23655 -5.77261,22.87092 -13.34409,32.15394 -1.88025,2.30528 -5.88937,6.3144 -8.19465,8.19465 -9.07839,7.40457 -14.52932,10.93482 -31.30727,13.23219 -16.777952,2.29737 -41.312037,-9.30718 -49.94208,-24.34808 z"
           style="fill:#000000;fill-opacity:1;stroke-width:0.16933332" />
      </g>
      <g
         transform="translate(0.92872274,-4.7625015)"
         id="text4500"
         style="font-style:normal;font-variant:normal;font-weight:normal;font-stretch:normal;font-size:10.58333302px;line-height:1.25;font-family:'Christmas Card';-inkscape-font-specification:'Christmas Card';letter-spacing:0px;word-spacing:0px;display:inline;fill:#000000;fill-opacity:1;stroke:none;stroke-width:0.26458332"
         aria-label="©">
        <path
           inkscape:connector-curvature="0"
           id="path4502"
           style="fill:#000000;fill-opacity:1;stroke-width:0.26458332"
           d="m 149.61476,185.2469 q 0.78548,0 1.46244,0.28422 0.68213,0.28422 1.2454,0.8475 0.56327,0.56327 0.84233,1.24023 0.27905,0.67696 0.27905,1.47278 0,0.78548 -0.27905,1.46244 -0.27906,0.6718 -0.84233,1.23507 -0.56327,0.56327 -1.2454,0.84749 -0.67696,0.28422 -1.46244,0.28422 -0.78549,0 -1.46761,-0.28422 -0.67697,-0.28422 -1.24024,-0.84749 -0.56327,-0.56327 -0.84232,-1.23507 -0.27906,-0.67696 -0.27906,-1.46244 0,-0.79582 0.27906,-1.47278 0.27905,-0.67696 0.84232,-1.24023 0.56327,-0.56328 1.24024,-0.8475 0.68212,-0.28422 1.46761,-0.28422 z m 0,0.53227 q -0.67697,0 -1.26091,0.24288 -0.58394,0.24288 -1.0697,0.72864 -0.48576,0.48576 -0.73381,1.08003 -0.24804,0.58912 -0.24804,1.26091 0,0.66663 0.24804,1.25574 0.24805,0.58394 0.73381,1.0697 0.48576,0.48576 1.0697,0.7338 0.58394,0.24288 1.26091,0.24288 0.68212,0 1.26607,-0.24288 0.58911,-0.24804 1.07487,-0.7338 0.48059,-0.48059 0.7183,-1.06454 0.24288,-0.58394 0.24288,-1.2609 0,-0.6873 -0.24288,-1.27124 -0.24288,-0.58911 -0.7183,-1.0697 -0.48576,-0.48576 -1.07487,-0.72864 -0.58395,-0.24288 -1.26607,-0.24288 z m 1.54512,1.26607 v 0.66663 q -0.34106,-0.17053 -0.67696,-0.25322 -0.3359,-0.0827 -0.67696,-0.0827 -0.76998,0 -1.20406,0.45475 -0.42892,0.44959 -0.42892,1.26091 0,0.82165 0.43925,1.27124 0.44442,0.44958 1.24541,0.44958 0.33072,0 0.64595,-0.0775 0.31523,-0.0827 0.65629,-0.25838 v 0.65629 q -0.34623,0.14986 -0.7028,0.22221 -0.3514,0.0723 -0.71313,0.0723 -1.11621,0 -1.76734,-0.63045 -0.64595,-0.63045 -0.64595,-1.70532 0,-1.08004 0.64595,-1.70532 0.65113,-0.62529 1.76734,-0.62529 0.37724,0 0.72863,0.0724 0.3514,0.0724 0.6873,0.21187 z" />
      </g>
      <path
         sodipodi:nodetypes="cccccccsccccc"
         inkscape:connector-curvature="0"
         id="path4723"
         d="m 63.649711,159.57696 c -22.435881,-4e-5 -40.623762,18.18786 -40.623734,40.62373 -2.1e-5,22.43588 18.187858,40.62377 40.623734,40.62374 8.736158,-0.0175 17.233911,-2.85095 24.232496,-8.07973 l -6.589235,-8.09571 -6.076337,7.55778 c -4.995292,5.21378 -9.284677,-0.33349 -9.284677,-0.33349 0,0 -22.315923,-18.55553 -22.318275,-31.39549 -0.0024,-12.85264 22.328798,-31.43467 22.328798,-31.43467 0,0 4.325725,-5.54167 9.318631,-0.14693 l 5.805974,7.13331 6.818482,-8.37701 c -7.000031,-5.22798 -15.499024,-8.05989 -24.235857,-8.07553 z"
         style="opacity:1;fill:#000000;fill-opacity:1;fill-rule:nonzero;stroke:none;stroke-width:0.08273776;stroke-linecap:round;stroke-linejoin:round;stroke-miterlimit:4;stroke-dasharray:none;stroke-dashoffset:0;stroke-opacity:1" />
    </g>
  </g>
  <g
     inkscape:groupmode="layer"
     id="layer2"
     inkscape:label="Laag 3" />
</svg>
